<svg width="1200" height="1600" xmlns="http://www.w3.org/2000/svg">
  <defs>
    <style>
      .title { font-family: Arial, sans-serif; font-size: 18px; font-weight: bold; text-anchor: middle; }
      .box { fill: #e1f5fe; stroke: #0277bd; stroke-width: 2; rx: 8; }
      .decision { fill: #fff3e0; stroke: #f57c00; stroke-width: 2; }
      .process { fill: #e8f5e8; stroke: #388e3c; stroke-width: 2; rx: 8; }
      .error { fill: #ffebee; stroke: #d32f2f; stroke-width: 2; rx: 8; }
      .text { font-family: Arial, sans-serif; font-size: 12px; text-anchor: middle; }
      .small-text { font-family: Arial, sans-serif; font-size: 10px; text-anchor: middle; }
      .arrow { stroke: #333; stroke-width: 2; fill: none; marker-end: url(#arrowhead); }
      .class-box { fill: #f3e5f5; stroke: #7b1fa2; stroke-width: 2; rx: 8; }
    </style>
    <marker id="arrowhead" markerWidth="10" markerHeight="7" refX="9" refY="3.5" orient="auto">
      <polygon points="0 0, 10 3.5, 0 7" fill="#333" />
    </marker>
  </defs>
  
  <!-- 标题 -->
  <text x="600" y="30" class="title">Training Tab 程序流程图</text>
  
  <!-- 主要类定义 -->
  <rect x="50" y="60" width="200" height="60" class="class-box"/>
  <text x="150" y="85" class="text">ParameterParser</text>
  <text x="150" y="105" class="small-text">参数解析器</text>
  
  <rect x="300" y="60" width="200" height="60" class="class-box"/>
  <text x="400" y="85" class="text">TrainingTab</text>
  <text x="400" y="105" class="small-text">训练标签页</text>
  
  <!-- UI渲染 -->
  <rect x="300" y="150" width="200" height="60" class="box"/>
  <text x="400" y="175" class="text">render()</text>
  <text x="400" y="195" class="small-text">渲染UI界面</text>
  
  <!-- 用户输入 -->
  <rect x="50" y="250" width="150" height="40" class="process"/>
  <text x="125" y="275" class="text">用户上传文件</text>
  
  <rect x="250" y="250" width="150" height="40" class="process"/>
  <text x="325" y="275" class="text">选择算法</text>
  
  <rect x="450" y="250" width="150" height="40" class="process"/>
  <text x="525" y="275" class="text">设置参数</text>
  
  <rect x="650" y="250" width="150" height="40" class="process"/>
  <text x="725" y="275" class="text">选择流量模式</text>
  
  <!-- 点击运行按钮 -->
  <rect x="300" y="330" width="200" height="50" class="box"/>
  <text x="400" y="360" class="text">点击"开始运行"按钮</text>
  
  <!-- 运行训练流程 -->
  <rect x="300" y="420" width="200" height="50" class="process"/>
  <text x="400" y="450" class="text">run_training()</text>
  
  <!-- 输入验证 -->
  <rect x="300" y="510" width="200" height="50" class="process"/>
  <text x="400" y="540" class="text">_validate_inputs()</text>
  
  <!-- 参数解析 -->
  <rect x="300" y="600" width="200" height="50" class="process"/>
  <text x="400" y="630" class="text">_parse_training_config()</text>
  
  <!-- 流量模式判断 -->
  <polygon points="350,690 450,670 550,690 450,710" class="decision"/>
  <text x="450" y="695" class="text">流量模式?</text>
  
  <!-- 静态流量分支 -->
  <rect x="150" y="750" width="150" height="50" class="process"/>
  <text x="225" y="775" class="text">静态流量配置</text>
  <text x="225" y="790" class="small-text">use_curriculum=False</text>
  
  <!-- 动态流量分支 -->
  <rect x="550" y="750" width="150" height="50" class="process"/>
  <text x="625" y="775" class="text">动态流量配置</text>
  <text x="625" y="790" class="small-text">use_curriculum=True</text>
  
  <!-- 参数解析器调用 -->
  <rect x="300" y="840" width="200" height="50" class="process"/>
  <text x="400" y="870" class="text">parseParams()</text>
  
  <!-- 仿真运行 -->
  <rect x="300" y="930" width="200" height="50" class="process"/>
  <text x="400" y="960" class="text">run_simulation()</text>
  
  <!-- 算法类型判断 -->
  <polygon points="350,1020 450,1000 550,1020 450,1040" class="decision"/>
  <text x="450" y="1025" class="text">算法类型?</text>
  
  <!-- FIXTIME分支 -->
  <rect x="50" y="1080" width="150" height="50" class="process"/>
  <text x="125" y="1105" class="text">FIXTIME算法</text>
  <text x="125" y="1120" class="small-text">固定配时仿真</text>
  
  <!-- 其他算法分支 -->
  <rect x="250" y="1080" width="150" height="50" class="process"/>
  <text x="325" y="1105" class="text">创建环境</text>
  <text x="325" y="1120" class="small-text">createEnv()</text>
  
  <rect x="450" y="1080" width="150" height="50" class="process"/>
  <text x="525" y="1105" class="text">创建智能体</text>
  <text x="525" y="1120" class="small-text">AgentFactory</text>
  
  <rect x="650" y="1080" width="150" height="50" class="process"/>
  <text x="725" y="1105" class="text">加载模型</text>
  <text x="725" y="1120" class="small-text">(如果存在)</text>
  
  <!-- 操作类型判断 -->
  <polygon points="350,1170 450,1150 550,1170 450,1190" class="decision"/>
  <text x="450" y="1175" class="text">操作类型?</text>
  
  <!-- 不同操作分支 -->
  <rect x="50" y="1230" width="120" height="40" class="process"/>
  <text x="110" y="1255" class="text">TRAIN</text>
  
  <rect x="200" y="1230" width="120" height="40" class="process"/>
  <text x="260" y="1255" class="text">EVAL</text>
  
  <rect x="350" y="1230" width="120" height="40" class="process"/>
  <text x="410" y="1255" class="text">PREDICT</text>
  
  <rect x="500" y="1230" width="120" height="40" class="process"/>
  <text x="560" y="1255" class="text">ALL</text>
  
  <!-- 具体操作实现 -->
  <rect x="50" y="1300" width="120" height="40" class="process"/>
  <text x="110" y="1325" class="text">_run_learning()</text>
  
  <rect x="200" y="1300" width="120" height="40" class="process"/>
  <text x="260" y="1325" class="text">_run_evaluation()</text>
  
  <rect x="350" y="1300" width="120" height="40" class="process"/>
  <text x="410" y="1325" class="text">_run_prediction()</text>
  
  <rect x="500" y="1300" width="120" height="40" class="process"/>
  <text x="560" y="1325" class="text">_run_all_operations()</text>
  
  <!-- 结果输出 -->
  <rect x="300" y="1380" width="200" height="50" class="box"/>
  <text x="400" y="1405" class="text">保存结果</text>
  <text x="400" y="1420" class="small-text">模型/评估/预测文件</text>
  
  <!-- 异常处理 -->
  <rect x="650" y="1380" width="150" height="50" class="error"/>
  <text x="725" y="1405" class="text">异常处理</text>
  <text x="725" y="1420" class="small-text">错误日志记录</text>
  
  <!-- 资源清理 -->
  <rect x="300" y="1460" width="200" height="50" class="process"/>
  <text x="400" y="1485" class="text">资源清理</text>
  <text x="400" y="1500" class="small-text">环境/智能体/模型</text>
  
  <!-- 完成 -->
  <rect x="300" y="1540" width="200" height="40" class="box"/>
  <text x="400" y="1565" class="text">任务完成</text>
  
  <!-- 连接线 -->
  <line x1="400" y1="120" x2="400" y2="150" class="arrow"/>
  <line x1="400" y1="210" x2="400" y2="250" class="arrow"/>
  <line x1="400" y1="290" x2="400" y2="330" class="arrow"/>
  <line x1="400" y1="380" x2="400" y2="420" class="arrow"/>
  <line x1="400" y1="470" x2="400" y2="510" class="arrow"/>
  <line x1="400" y1="560" x2="400" y2="600" class="arrow"/>
  <line x1="400" y1="650" x2="400" y2="670" class="arrow"/>
  
  <!-- 流量模式分支 -->
  <line x1="400" y1="710" x2="225" y2="750" class="arrow"/>
  <line x1="400" y1="710" x2="625" y2="750" class="arrow"/>
  <line x1="225" y1="800" x2="400" y2="840" class="arrow"/>
  <line x1="625" y1="800" x2="400" y2="840" class="arrow"/>
  
  <line x1="400" y1="890" x2="400" y2="930" class="arrow"/>
  <line x1="400" y1="980" x2="400" y2="1000" class="arrow"/>
  
  <!-- 算法类型分支 -->
  <line x1="400" y1="1040" x2="125" y2="1080" class="arrow"/>
  <line x1="400" y1="1040" x2="325" y2="1080" class="arrow"/>
  <line x1="400" y1="1040" x2="525" y2="1080" class="arrow"/>
  <line x1="400" y1="1040" x2="725" y2="1080" class="arrow"/>
  
  <!-- 汇聚到操作判断 -->
  <line x1="325" y1="1130" x2="400" y2="1150" class="arrow"/>
  <line x1="525" y1="1130" x2="450" y2="1150" class="arrow"/>
  
  <!-- 操作类型分支 -->
  <line x1="400" y1="1190" x2="110" y2="1230" class="arrow"/>
  <line x1="400" y1="1190" x2="260" y2="1230" class="arrow"/>
  <line x1="400" y1="1190" x2="410" y2="1230" class="arrow"/>
  <line x1="400" y1="1190" x2="560" y2="1230" class="arrow"/>
  
  <!-- 具体实现 -->
  <line x1="110" y1="1270" x2="110" y2="1300" class="arrow"/>
  <line x1="260" y1="1270" x2="260" y2="1300" class="arrow"/>
  <line x1="410" y1="1270" x2="410" y2="1300" class="arrow"/>
  <line x1="560" y1="1270" x2="560" y2="1300" class="arrow"/>
  
  <!-- 汇聚到结果 -->
  <line x1="110" y1="1340" x2="400" y2="1380" class="arrow"/>
  <line x1="260" y1="1340" x2="400" y2="1380" class="arrow"/>
  <line x1="410" y1="1340" x2="400" y2="1380" class="arrow"/>
  <line x1="560" y1="1340" x2="400" y2="1380" class="arrow"/>
  
  <line x1="400" y1="1430" x2="400" y2="1460" class="arrow"/>
  <line x1="400" y1="1510" x2="400" y2="1540" class="arrow"/>
  
  <!-- 异常处理连接 -->
  <line x1="600" y1="1000" x2="725" y2="1380" class="arrow" stroke-dasharray="5,5"/>
  
  <!-- 标签 -->
  <text x="300" y="735" class="small-text">静态</text>
  <text x="600" y="735" class="small-text">动态</text>
  <text x="75" y="1070" class="small-text">FIXTIME</text>
  <text x="300" y="1070" class="small-text">其他算法</text>
  
</svg>